<svg width="10" height="18" viewBox="0 0 10 18" fill="none" xmlns="http://www.w3.org/2000/svg">
<path d="M1.5 17.7499C1.20794 17.7505 0.924892 17.6488 0.700002 17.4624C0.573429 17.3575 0.468802 17.2286 0.392112 17.0832C0.315422 16.9377 0.268177 16.7786 0.253082 16.6149C0.237987 16.4512 0.25534 16.2861 0.304145 16.1291C0.352951 15.9721 0.43225 15.8262 0.537502 15.6999L6.1375 8.99993L0.737503 2.28743C0.633671 2.15957 0.556131 2.01245 0.509341 1.85452C0.462552 1.6966 0.447434 1.53098 0.464859 1.3672C0.482283 1.20341 0.531904 1.04469 0.610871 0.900139C0.689838 0.755593 0.796594 0.628079 0.925003 0.524926C1.05434 0.41113 1.20579 0.325296 1.36987 0.272809C1.53395 0.220323 1.7071 0.202318 1.87847 0.219924C2.04984 0.237531 2.21571 0.290368 2.36569 0.37512C2.51567 0.459872 2.64651 0.57471 2.75 0.712426L8.7875 8.21243C8.97135 8.43609 9.07186 8.71665 9.07186 9.00618C9.07186 9.29571 8.97135 9.57626 8.7875 9.79993L2.5375 17.2999C2.41211 17.4512 2.25281 17.5708 2.07255 17.649C1.89229 17.7271 1.69614 17.7617 1.5 17.7499Z" fill="#1F2633"/>
</svg>
