<svg width="8" height="15" viewBox="0 0 8 15" fill="none" xmlns="http://www.w3.org/2000/svg">
<g clip-path="url(#clip0)">
<path d="M6.28422 8.16018H5.34789C3.87729 8.16018 2.45115 7.20021 2.45115 4.80009C2.45115 2.2997 3.78804 1.27991 5.14731 1.27991H6.28421V8.16018H6.28422ZM7.75482 0H5.21417C2.71873 0 0.601621 1.70001 0.601621 5.00013C0.601621 6.98016 1.62705 8.44006 3.45374 9.16008L0.0449507 14.6802C-0.0663834 14.8603 0.0449507 15 0.222691 15H1.80478C1.9385 15 2.02773 14.9601 2.07221 14.8603L5.16953 9.43996H6.2842V14.8603C6.2842 14.9201 6.35106 15 6.43955 15H7.82166C7.95538 15 8 14.94 8 14.8404V0.20016C8 0.05982 7.91075 0 7.75481 0" fill="#FF2F2F"/>
</g>
<defs>
<clipPath id="clip0">
<rect width="8" height="15" fill="white"/>
</clipPath>
</defs>
</svg>
