<svg width="60" height="60" viewBox="0 0 60 60" fill="none" xmlns="http://www.w3.org/2000/svg">
<path d="M30 0C24.0666 0 18.2664 1.75947 13.3329 5.05591C8.39943 8.35235 4.55426 13.0377 2.28363 18.5195C0.0129986 24.0013 -0.581101 30.0333 0.576455 35.8527C1.73401 41.6721 4.59123 47.0176 8.78681 51.2132C12.9824 55.4088 18.3279 58.266 24.1473 59.4235C29.9667 60.5811 35.9987 59.987 41.4805 57.7164C46.9623 55.4457 51.6476 51.6006 54.9441 46.6671C58.2405 41.7336 60 35.9334 60 30C60 22.0435 56.8393 14.4129 51.2132 8.78679C45.5871 3.1607 37.9565 0 30 0ZM30 10.7143C31.9072 10.7143 33.7715 11.2798 35.3573 12.3394C36.943 13.399 38.179 14.905 38.9088 16.667C39.6387 18.429 39.8296 20.3678 39.4576 22.2384C39.0855 24.1089 38.1671 25.8271 36.8185 27.1757C35.47 28.5242 33.7518 29.4426 31.8812 29.8147C30.0107 30.1868 28.0718 29.9958 26.3098 29.266C24.5478 28.5361 23.0418 27.3002 21.9823 25.7144C20.9227 24.1287 20.3572 22.2643 20.3572 20.3571C20.3543 19.09 20.6018 17.8348 21.0854 16.6636C21.569 15.4924 22.2792 14.4283 23.1752 13.5323C24.0712 12.6363 25.1353 11.9261 26.3065 11.4425C27.4777 10.9589 28.7329 10.7115 30 10.7143ZM47.1429 49.1143C42.4436 53.3621 36.3346 55.714 30 55.714C23.6654 55.714 17.5564 53.3621 12.8572 49.1143V47.8714C12.776 44.9374 13.8558 42.0899 15.8619 39.9473C17.868 37.8048 20.6384 36.5403 23.5714 36.4286H36.4286C39.3483 36.5458 42.1057 37.803 44.1088 39.9303C46.112 42.0577 47.2013 44.8857 47.1429 47.8071V49.1143Z" fill="#EAE5E2"/>
</svg>
