<svg width="16" height="17" viewBox="0 0 16 17" fill="none" xmlns="http://www.w3.org/2000/svg">
<path d="M16 8.96476C16.0007 8.43278 15.9554 7.90173 15.8646 7.37744H8.45142V10.384H12.6974C12.6105 10.8642 12.4266 11.322 12.1568 11.7297C11.8869 12.1374 11.5368 12.4866 11.1274 12.7563V14.7079H13.6614C15.1452 13.3494 16 11.3403 16 8.96476Z" fill="#4285F4"/>
<path d="M8.45151 16.5932C10.5729 16.5932 12.359 15.9014 13.6615 14.7088L11.1275 12.7571C10.4222 13.232 9.51382 13.5031 8.45151 13.5031C6.40113 13.5031 4.66082 12.1305 4.0385 10.2808H1.42804V12.292C2.08231 13.5849 3.08557 14.6718 4.3258 15.4313C5.56603 16.1908 6.99442 16.5931 8.45151 16.5932Z" fill="#34A853"/>
<path d="M4.03839 10.2811C3.70939 9.31187 3.70939 8.26224 4.03839 7.29299V5.28174H1.42792C0.877528 6.36939 0.590881 7.56979 0.590881 8.78706C0.590881 10.0043 0.877528 11.2047 1.42792 12.2924L4.03839 10.2811Z" fill="#FBBC04"/>
<path d="M8.45151 4.07055C9.57254 4.05236 10.6558 4.47299 11.467 5.24152L13.7106 3.01343C12.288 1.68641 10.4032 0.957855 8.45151 0.980493C6.99442 0.980559 5.56603 1.3828 4.3258 2.14231C3.08557 2.90183 2.08231 3.98872 1.42804 5.28164L4.0385 7.29289C4.66082 5.44319 6.40113 4.07055 8.45151 4.07055Z" fill="#EA4335"/>
</svg>
